PathFileType	4	(X/Y/Z)	Gait_norma_markers.trc
DataRate	CameraRate	NumFrames	NumMarkers	Units	OrigDataRate	OrigDataStartFrame	OrigNumFrames
100	100	8	38	m	100	74	86
Frame#	Time	RASI			RPSI			LPSI			LASI			RTROCH			RTHI			RTHI2			RTHI3			RTHI4			RKNE			RKNEM			RTIB			RTIB2			RTIB3			RTIB4			RANK			RANKM			RHEE			RTOE			RTOEL			RTOEM			LTROCH			LTHI			LTHI2			LTHI3			LTHI4			LKNE			LKNEM			LTIB			LTIB2			LTIB3			LTIB4			LANK			LANKM			LHEE			LTOE			LTOEL			LTOEM
		X1	Y1	Z1	X2	Y2	Z2	X3	Y3	Z3	X4	Y4	Z4	X5	Y5	Z5	X6	Y6	Z6	X7	Y7	Z7	X8	Y8	Z8	X9	Y9	Z9	X10	Y10	Z10	X11	Y11	Z11	X12	Y12	Z12	X13	Y13	Z13	X14	Y14	Z14	X15	Y15	Z15	X16	Y16	Z16	X17	Y17	Z17	X18	Y18	Z18	X19	Y19	Z19	X20	Y20	Z20	X21	Y21	Z21	X22	Y22	Z22	X23	Y23	Z23	X24	Y24	Z24	X25	Y25	Z25	X26	Y26	Z26	X27	Y27	Z27	X28	Y28	Z28	X29	Y29	Z29	X30	Y30	Z30	X31	Y31	Z31	X32	Y32	Z32	X33	Y33	Z33	X34	Y34	Z34	X35	Y35	Z35	X36	Y36	Z36	X37	Y37	Z37	X38	Y38	Z38

74	0.730000	-0.325534	0.940550	-0.002058	-0.280044	0.974496	-0.190247	-0.185412	0.969834	-0.192781	-0.097035	0.942697	-0.016195	-0.389686	0.862862	-0.051080	-0.399998	0.746555	-0.019060	-0.386154	0.770225	0.040362	-0.378570	0.695654	0.076853	-0.391696	0.668030	0.020801	-0.350229	0.531944	0.083249	-0.241343	0.536181	0.078534	-0.372468	0.393238	0.089366	-0.347502	0.408668	0.147786	-0.345696	0.324234	0.171911	-0.372084	0.313683	0.109902	-0.321537	0.100643	0.175125	-0.254710	0.123575	0.212488	-0.271393	0.039186	0.153652	-0.337894	0.126337	0.357225	-0.384568	0.078504	0.314297	-0.281918	0.100369	0.362565	-0.054446	0.880605	-0.108346	-0.052332	0.683530	-0.131772	-0.066151	0.667299	-0.073073	-0.081600	0.588887	-0.100158	-0.068255	0.602162	-0.162175	-0.088046	0.511147	-0.173571	-0.194109	0.530016	-0.160127	-0.077368	0.326605	-0.304679	-0.100559	0.302870	-0.249297	-0.111002	0.229422	-0.297039	-0.088472	0.257095	-0.348373	-0.117206	0.137064	-0.411904	-0.194180	0.146088	-0.375127	-0.166767	0.105259	-0.480195	-0.128341	0.049174	-0.258957	-0.078282	0.046573	-0.308590	-0.181626	0.050102	-0.272548
75	0.740000	-0.325959	0.941006	0.013270	-0.281660	0.973495	-0.175904	-0.187281	0.968939	-0.179066	-0.097927	0.941813	-0.002809	-0.390371	0.862405	-0.036048	-0.400504	0.745792	-0.004446	-0.388561	0.769315	0.055319	-0.379925	0.695469	0.090956	-0.392394	0.669537	0.030738	-0.349076	0.531627	0.095900	-0.241497	0.536543	0.091279	-0.371745	0.392193	0.101641	-0.345845	0.407353	0.159796	-0.343836	0.322753	0.183202	-0.370986	0.312618	0.121683	-0.320835	0.099744	0.182627	-0.252715	0.120716	0.219589	-0.271255	0.041734	0.157053	-0.334535	0.119381	0.364645	-0.381950	0.073723	0.319390	-0.280009	0.091225	0.367694	-0.055524	0.879731	-0.095300	-0.053134	0.683022	-0.119263	-0.066023	0.666701	-0.060413	-0.081315	0.587939	-0.086952	-0.068964	0.601592	-0.149559	-0.088241	0.510504	-0.160827	-0.194276	0.528622	-0.145790	-0.077644	0.328824	-0.295954	-0.099951	0.303341	-0.241082	-0.110974	0.232676	-0.290380	-0.089186	0.261068	-0.342170	-0.117105	0.142169	-0.408193	-0.193699	0.149787	-0.370389	-0.166750	0.112220	-0.476427	-0.128353	0.048572	-0.259033	-0.078270	0.047119	-0.307616	-0.181332	0.050298	-0.271846
76	0.750000	-0.326538	0.940918	0.027980	-0.283669	0.973080	-0.161541	-0.189278	0.968214	-0.165092	-0.098193	0.941483	0.010426	-0.391523	0.862575	-0.020935	-0.401414	0.745803	0.009237	-0.389452	0.768830	0.069221	-0.380074	0.694648	0.104208	-0.391379	0.667165	0.047964	-0.349253	0.531202	0.107291	-0.241288	0.535289	0.101244	-0.371767	0.391893	0.113800	-0.344596	0.406852	0.171622	-0.342133	0.322222	0.194713	-0.370595	0.312092	0.133674	-0.320730	0.099240	0.189392	-0.251884	0.118365	0.226074	-0.271750	0.043909	0.159957	-0.331506	0.110690	0.372074	-0.379840	0.067971	0.324966	-0.277595	0.082227	0.373328	-0.056244	0.879139	-0.082021	-0.054303	0.682821	-0.106402	-0.066263	0.666455	-0.046902	-0.079824	0.589747	-0.073755	-0.069458	0.601403	-0.136116	-0.088188	0.510061	-0.146547	-0.194352	0.527382	-0.130039	-0.077702	0.331922	-0.286377	-0.099280	0.304360	-0.232104	-0.110064	0.234483	-0.283005	-0.089279	0.265284	-0.334374	-0.116570	0.147481	-0.402879	-0.193055	0.154021	-0.364629	-0.167079	0.119940	-0.471778	-0.128315	0.048578	-0.258547	-0.078183	0.048030	-0.306595	-0.180976	0.050560	-0.271095
77	0.760000	-0.327103	0.941170	0.042442	-0.286309	0.973257	-0.147150	-0.191299	0.967731	-0.151072	-0.098889	0.941591	0.023717	-0.392868	0.863252	-0.005985	-0.402316	0.746010	0.022529	-0.389147	0.768500	0.082374	-0.379278	0.693237	0.116428	-0.392736	0.668968	0.055268	-0.350648	0.530599	0.118785	-0.240705	0.534906	0.111027	-0.372148	0.392611	0.126479	-0.343680	0.406543	0.183613	-0.341042	0.321596	0.205817	-0.371214	0.312501	0.145112	-0.320989	0.098783	0.194685	-0.251917	0.116498	0.231173	-0.272077	0.045569	0.162163	-0.330103	0.102313	0.377864	-0.378912	0.061737	0.329261	-0.277054	0.072634	0.376474	-0.056470	0.879485	-0.069210	-0.055391	0.682959	-0.092490	-0.067580	0.665773	-0.033148	-0.080811	0.587569	-0.058234	-0.069652	0.601135	-0.121187	-0.087434	0.509221	-0.131094	-0.194261	0.525990	-0.112987	-0.077698	0.334982	-0.275636	-0.098277	0.306047	-0.221698	-0.106488	0.240387	-0.273879	-0.089457	0.269800	-0.325474	-0.116483	0.152465	-0.396083	-0.192360	0.158575	-0.357816	-0.167815	0.128751	-0.465990	-0.128241	0.048640	-0.257856	-0.078316	0.049135	-0.305332	-0.180524	0.050696	-0.270373
78	0.770000	-0.327657	0.941681	0.056649	-0.288761	0.974438	-0.133415	-0.193268	0.967812	-0.137430	-0.099528	0.942018	0.036696	-0.394101	0.864520	0.009038	-0.403730	0.746749	0.035209	-0.388394	0.768011	0.094926	-0.378497	0.691988	0.127632	-0.393247	0.666623	0.070965	-0.352249	0.530783	0.131621	-0.240669	0.534966	0.120403	-0.373136	0.393852	0.138527	-0.343352	0.406476	0.195667	-0.341301	0.320914	0.215595	-0.372533	0.313396	0.155404	-0.321510	0.098393	0.198675	-0.252648	0.115418	0.235388	-0.272675	0.047024	0.163826	-0.330969	0.095516	0.382110	-0.379567	0.056616	0.331487	-0.276780	0.067283	0.379839	-0.057748	0.880338	-0.056185	-0.056405	0.682943	-0.077517	-0.066471	0.667229	-0.017391	-0.080692	0.587898	-0.042670	-0.069647	0.600616	-0.105214	-0.086536	0.508568	-0.113966	-0.193951	0.524393	-0.094561	-0.077387	0.338620	-0.263533	-0.096852	0.307482	-0.210566	-0.108733	0.240209	-0.264445	-0.089458	0.274995	-0.315365	-0.116509	0.159750	-0.389469	-0.191623	0.163665	-0.349374	-0.168723	0.139055	-0.458899	-0.128327	0.048719	-0.256854	-0.078465	0.050486	-0.303687	-0.180180	0.050816	-0.268617
79	0.780000	-0.328384	0.942981	0.070429	-0.290643	0.976016	-0.119693	-0.195210	0.968492	-0.123860	-0.100666	0.942918	0.049648	-0.395281	0.866133	0.023831	-0.405628	0.748219	0.047458	-0.388088	0.768383	0.107179	-0.378489	0.691668	0.138625	-0.395882	0.669721	0.077069	-0.353344	0.532184	0.145589	-0.241531	0.534791	0.130503	-0.374634	0.395111	0.149516	-0.344186	0.406092	0.206453	-0.342258	0.320475	0.224684	-0.374361	0.314228	0.164473	-0.322396	0.098312	0.201519	-0.253995	0.114778	0.239016	-0.272939	0.048215	0.165276	-0.333572	0.089847	0.385119	-0.381067	0.051694	0.332813	-0.279127	0.061516	0.381672	-0.060084	0.879942	-0.042434	-0.057237	0.682862	-0.061714	-0.067226	0.667823	-0.001286	-0.079459	0.588013	-0.024832	-0.069477	0.600008	-0.088086	-0.084922	0.507490	-0.094886	-0.192822	0.522616	-0.074776	-0.076827	0.342558	-0.249887	-0.094894	0.309444	-0.197563	-0.107255	0.244034	-0.255141	-0.088878	0.280452	-0.303709	-0.116521	0.167967	-0.381397	-0.190594	0.169102	-0.339184	-0.169847	0.150576	-0.450100	-0.128320	0.049014	-0.255382	-0.078691	0.052445	-0.301702	-0.179989	0.050779	-0.266254
80	0.790000	-0.329308	0.944708	0.083888	-0.292315	0.978266	-0.106467	-0.196964	0.970029	-0.110762	-0.102771	0.944917	0.062790	-0.396562	0.868143	0.037888	-0.406769	0.750435	0.060245	-0.387847	0.769816	0.119872	-0.378282	0.692836	0.150152	-0.397291	0.671448	0.088797	-0.354313	0.534260	0.158422	-0.243285	0.537004	0.141750	-0.376665	0.396038	0.158970	-0.346054	0.405981	0.215942	-0.343868	0.319792	0.232172	-0.376305	0.314872	0.172266	-0.323163	0.098032	0.203929	-0.255256	0.113241	0.242684	-0.274273	0.049411	0.165614	-0.335178	0.084911	0.388146	-0.382125	0.047433	0.334234	-0.280186	0.057135	0.383346	-0.060844	0.881597	-0.030092	-0.057932	0.682666	-0.045128	-0.067464	0.668177	0.015108	-0.078095	0.588166	-0.006391	-0.068889	0.599063	-0.069991	-0.082974	0.506853	-0.074988	-0.190604	0.520549	-0.052993	-0.076041	0.346821	-0.234994	-0.092725	0.310730	-0.182602	-0.105683	0.247971	-0.242601	-0.088836	0.286351	-0.290025	-0.116454	0.175540	-0.370279	-0.189745	0.175243	-0.327574	-0.170853	0.163733	-0.439561	-0.128033	0.049752	-0.253173	-0.078831	0.055176	-0.299220	-0.179759	0.051594	-0.263010
81	0.800000	-0.330481	0.946981	0.096936	-0.294016	0.980478	-0.093576	-0.198426	0.971989	-0.097918	-0.103854	0.946384	0.075202	-0.398071	0.870569	0.051042	-0.408078	0.752924	0.073796	-0.387492	0.773101	0.132657	-0.377491	0.696265	0.163683	-0.398309	0.674601	0.102661	-0.355596	0.536235	0.170039	-0.246978	0.537336	0.151993	-0.378870	0.396740	0.166888	-0.348496	0.406000	0.224363	-0.345822	0.319439	0.238815	-0.378228	0.315345	0.178937	-0.324402	0.097965	0.206087	-0.256473	0.113089	0.245082	-0.274621	0.050041	0.166824	-0.336041	0.079914	0.389865	-0.382592	0.044139	0.335606	-0.280361	0.053472	0.384759	-0.062876	0.882473	-0.017060	-0.058381	0.682571	-0.028611	-0.066416	0.670008	0.032432	-0.076209	0.588601	0.012784	-0.067861	0.598190	-0.051092	-0.080380	0.506133	-0.053889	-0.187637	0.517898	-0.029542	-0.074482	0.350668	-0.217705	-0.090688	0.313545	-0.166868	-0.104358	0.250715	-0.229187	-0.088366	0.292272	-0.275283	-0.116139	0.185409	-0.358774	-0.188939	0.181911	-0.314629	-0.172072	0.177973	-0.427034	-0.127687	0.051093	-0.249983	-0.078885	0.059015	-0.296094	-0.179735	0.053565	-0.259243
